<svg xmlns="http://www.w3.org/2000/svg" width="164.195" height="27.439" viewBox="0 0 164.195 27.439">
    <g id="vendoo" transform="translate(0 0)">
        <path id="Path_1" data-name="gE"
              d="M82.254,19.6a1.121,1.121,0,0,1-1.093-1.1V17.445h8.486V9.938H81.156V8.852a1.113,1.113,0,0,1,1.093-1.089H94.928V.024H82.218A8.495,8.495,0,0,0,75.709,2.4a7.929,7.929,0,0,0-2.379,5.39V19.606a8.132,8.132,0,0,0,8.177,7.761H94.928V19.6Z"
              transform="translate(-41.889 -0.004)" fill="#7ca039"/>
        <path id="Path_5" data-name="oN"
              d="M155.413.01h-7.765V11.78l-5.634-9.429a4.8,4.8,0,0,0-8.835,2.6v22.48h7.765V15.209l5.932,9.931a4.594,4.594,0,0,0,8.529-2.379c0-.107-.009-.215-.018-.322h.018Z"
              transform="translate(-76.076 0.005)" fill="#008ebe"/>
        <path id="Path_2" data-name="bD"
              d="M202.269.01H194.5V27.357h7.769a13.19,13.19,0,0,0,9.665-4,13.176,13.176,0,0,0,4-9.668,13.2,13.2,0,0,0-4-9.668,13.174,13.174,0,0,0-9.665-4m4.155,17.845a5.631,5.631,0,0,1-4.155,1.732V7.75a5.655,5.655,0,0,1,4.155,1.732,5.744,5.744,0,0,1,1.724,4.2,5.71,5.71,0,0,1-1.724,4.177"
              transform="translate(-111.104 0.005)" fill="#1d41dc"/>
    </g>
</svg>
